<mxfile host="app.diagrams.net" modified="2023-10-16T01:14:51.666Z" agent="Mozilla/5.0 (Windows NT 10.0; Win64; x64; rv:109.0) Gecko/20100101 Firefox/118.0" etag="0-lH2JFyEF1oAvRquEPg" version="22.0.4" type="github">
  <diagram id="C5RBs43oDa-KdzZeNtuy" name="Page-1">
    <mxGraphModel dx="1707" dy="470" grid="1" gridSize="10" guides="1" tooltips="1" connect="1" arrows="1" fold="1" page="1" pageScale="1" pageWidth="827" pageHeight="1169" math="0" shadow="0">
      <root>
        <mxCell id="WIyWlLk6GJQsqaUBKTNV-0" />
        <mxCell id="WIyWlLk6GJQsqaUBKTNV-1" parent="WIyWlLk6GJQsqaUBKTNV-0" />
        <mxCell id="x94edPNo0FfJQ9AjvvjE-2" style="edgeStyle=orthogonalEdgeStyle;rounded=0;orthogonalLoop=1;jettySize=auto;html=1;entryX=0.5;entryY=0;entryDx=0;entryDy=0;" edge="1" parent="WIyWlLk6GJQsqaUBKTNV-1" source="x94edPNo0FfJQ9AjvvjE-0" target="x94edPNo0FfJQ9AjvvjE-1">
          <mxGeometry relative="1" as="geometry" />
        </mxCell>
        <mxCell id="x94edPNo0FfJQ9AjvvjE-0" value="start" style="strokeWidth=2;html=1;shape=mxgraph.flowchart.terminator;whiteSpace=wrap;" vertex="1" parent="WIyWlLk6GJQsqaUBKTNV-1">
          <mxGeometry x="200" y="70" width="100" height="50" as="geometry" />
        </mxCell>
        <mxCell id="x94edPNo0FfJQ9AjvvjE-4" style="edgeStyle=orthogonalEdgeStyle;rounded=0;orthogonalLoop=1;jettySize=auto;html=1;entryX=0.5;entryY=0;entryDx=0;entryDy=0;" edge="1" parent="WIyWlLk6GJQsqaUBKTNV-1" source="x94edPNo0FfJQ9AjvvjE-1" target="x94edPNo0FfJQ9AjvvjE-3">
          <mxGeometry relative="1" as="geometry" />
        </mxCell>
        <mxCell id="x94edPNo0FfJQ9AjvvjE-1" value="Integer Bilangan" style="shape=internalStorage;whiteSpace=wrap;html=1;dx=15;dy=15;rounded=1;arcSize=8;strokeWidth=2;" vertex="1" parent="WIyWlLk6GJQsqaUBKTNV-1">
          <mxGeometry x="187.5" y="150" width="125" height="50" as="geometry" />
        </mxCell>
        <mxCell id="x94edPNo0FfJQ9AjvvjE-8" value="" style="edgeStyle=orthogonalEdgeStyle;rounded=0;orthogonalLoop=1;jettySize=auto;html=1;" edge="1" parent="WIyWlLk6GJQsqaUBKTNV-1" source="x94edPNo0FfJQ9AjvvjE-3" target="x94edPNo0FfJQ9AjvvjE-5">
          <mxGeometry relative="1" as="geometry" />
        </mxCell>
        <mxCell id="x94edPNo0FfJQ9AjvvjE-3" value="&lt;div&gt;output &quot;masukkan bilangan&lt;/div&gt;&lt;div&gt;yang akan diuji&quot;&lt;br&gt;&lt;/div&gt;" style="shape=parallelogram;html=1;strokeWidth=2;perimeter=parallelogramPerimeter;whiteSpace=wrap;rounded=1;arcSize=12;size=0.23;" vertex="1" parent="WIyWlLk6GJQsqaUBKTNV-1">
          <mxGeometry x="136.25" y="230" width="227.5" height="50" as="geometry" />
        </mxCell>
        <mxCell id="x94edPNo0FfJQ9AjvvjE-5" value="Input bilangan" style="shape=parallelogram;html=1;strokeWidth=2;perimeter=parallelogramPerimeter;whiteSpace=wrap;rounded=1;arcSize=12;size=0.23;" vertex="1" parent="WIyWlLk6GJQsqaUBKTNV-1">
          <mxGeometry x="173.75" y="310" width="152.5" height="40" as="geometry" />
        </mxCell>
        <mxCell id="x94edPNo0FfJQ9AjvvjE-15" value="true" style="edgeStyle=orthogonalEdgeStyle;rounded=0;orthogonalLoop=1;jettySize=auto;html=1;" edge="1" parent="WIyWlLk6GJQsqaUBKTNV-1" source="x94edPNo0FfJQ9AjvvjE-9">
          <mxGeometry relative="1" as="geometry">
            <mxPoint x="400" y="480" as="targetPoint" />
          </mxGeometry>
        </mxCell>
        <mxCell id="x94edPNo0FfJQ9AjvvjE-16" value="false" style="edgeStyle=orthogonalEdgeStyle;rounded=0;orthogonalLoop=1;jettySize=auto;html=1;" edge="1" parent="WIyWlLk6GJQsqaUBKTNV-1" source="x94edPNo0FfJQ9AjvvjE-9">
          <mxGeometry relative="1" as="geometry">
            <mxPoint x="100" y="480" as="targetPoint" />
          </mxGeometry>
        </mxCell>
        <mxCell id="x94edPNo0FfJQ9AjvvjE-9" value="bilangan mod 2 ==0" style="strokeWidth=2;html=1;shape=mxgraph.flowchart.decision;whiteSpace=wrap;" vertex="1" parent="WIyWlLk6GJQsqaUBKTNV-1">
          <mxGeometry x="177.5" y="380" width="145" height="80" as="geometry" />
        </mxCell>
        <mxCell id="x94edPNo0FfJQ9AjvvjE-10" style="edgeStyle=orthogonalEdgeStyle;rounded=0;orthogonalLoop=1;jettySize=auto;html=1;entryX=0.5;entryY=0;entryDx=0;entryDy=0;entryPerimeter=0;" edge="1" parent="WIyWlLk6GJQsqaUBKTNV-1" source="x94edPNo0FfJQ9AjvvjE-5" target="x94edPNo0FfJQ9AjvvjE-9">
          <mxGeometry relative="1" as="geometry" />
        </mxCell>
        <mxCell id="x94edPNo0FfJQ9AjvvjE-26" style="edgeStyle=orthogonalEdgeStyle;rounded=0;orthogonalLoop=1;jettySize=auto;html=1;entryX=0;entryY=0.5;entryDx=0;entryDy=0;entryPerimeter=0;" edge="1" parent="WIyWlLk6GJQsqaUBKTNV-1" source="x94edPNo0FfJQ9AjvvjE-11" target="x94edPNo0FfJQ9AjvvjE-24">
          <mxGeometry relative="1" as="geometry">
            <mxPoint x="130" y="610" as="targetPoint" />
            <Array as="points">
              <mxPoint x="95" y="575" />
            </Array>
          </mxGeometry>
        </mxCell>
        <mxCell id="x94edPNo0FfJQ9AjvvjE-11" value="&lt;div&gt;output bilangan &amp;amp; &quot;adalah&lt;/div&gt;&lt;div&gt;bilangan ganjil&quot;&lt;br&gt;&lt;/div&gt;" style="shape=parallelogram;html=1;strokeWidth=2;perimeter=parallelogramPerimeter;whiteSpace=wrap;rounded=1;arcSize=12;size=0.23;" vertex="1" parent="WIyWlLk6GJQsqaUBKTNV-1">
          <mxGeometry y="480" width="220" height="50" as="geometry" />
        </mxCell>
        <mxCell id="x94edPNo0FfJQ9AjvvjE-27" style="edgeStyle=orthogonalEdgeStyle;rounded=0;orthogonalLoop=1;jettySize=auto;html=1;entryX=1;entryY=0.5;entryDx=0;entryDy=0;entryPerimeter=0;" edge="1" parent="WIyWlLk6GJQsqaUBKTNV-1" source="x94edPNo0FfJQ9AjvvjE-12" target="x94edPNo0FfJQ9AjvvjE-24">
          <mxGeometry relative="1" as="geometry">
            <mxPoint x="300" y="610" as="targetPoint" />
            <Array as="points">
              <mxPoint x="395" y="575" />
            </Array>
          </mxGeometry>
        </mxCell>
        <mxCell id="x94edPNo0FfJQ9AjvvjE-12" value="&lt;div&gt;output bilangan &amp;amp; &quot; adalah&lt;/div&gt;&lt;div&gt;bilangan genap&quot;&lt;br&gt;&lt;/div&gt;" style="shape=parallelogram;html=1;strokeWidth=2;perimeter=parallelogramPerimeter;whiteSpace=wrap;rounded=1;arcSize=12;size=0.23;" vertex="1" parent="WIyWlLk6GJQsqaUBKTNV-1">
          <mxGeometry x="280" y="480" width="220" height="50" as="geometry" />
        </mxCell>
        <mxCell id="x94edPNo0FfJQ9AjvvjE-14" value="end" style="strokeWidth=2;html=1;shape=mxgraph.flowchart.terminator;whiteSpace=wrap;" vertex="1" parent="WIyWlLk6GJQsqaUBKTNV-1">
          <mxGeometry x="200" y="610" width="100" height="50" as="geometry" />
        </mxCell>
        <mxCell id="x94edPNo0FfJQ9AjvvjE-24" value="" style="verticalLabelPosition=bottom;verticalAlign=top;html=1;shape=mxgraph.flowchart.on-page_reference;" vertex="1" parent="WIyWlLk6GJQsqaUBKTNV-1">
          <mxGeometry x="240" y="565" width="20" height="20" as="geometry" />
        </mxCell>
        <mxCell id="x94edPNo0FfJQ9AjvvjE-28" style="edgeStyle=orthogonalEdgeStyle;rounded=0;orthogonalLoop=1;jettySize=auto;html=1;entryX=0.5;entryY=0;entryDx=0;entryDy=0;entryPerimeter=0;" edge="1" parent="WIyWlLk6GJQsqaUBKTNV-1" source="x94edPNo0FfJQ9AjvvjE-24" target="x94edPNo0FfJQ9AjvvjE-14">
          <mxGeometry relative="1" as="geometry" />
        </mxCell>
      </root>
    </mxGraphModel>
  </diagram>
</mxfile>
